<?xml version="1.0" encoding="utf-8"?>
<!-- Generator: Adobe Illustrator 24.3.0, SVG Export Plug-In . SVG Version: 6.00 Build 0)  -->
<svg version="1.1" id="Layer_1" xmlns="http://www.w3.org/2000/svg" xmlns:xlink="http://www.w3.org/1999/xlink" x="0px" y="0px"
	 viewBox="0 0 73.83 82.26" style="enable-background:new 0 0 73.83 82.26;" xml:space="preserve">
<style type="text/css">
	.st0{fill:#151516;}
	.st1{fill:#FFFFFF;}
	.st2{fill:#4646E8;}
	.st3{fill:none;}
</style>
<g>
	<path class="st3" d="M41.38,70.42c-0.42-0.25-0.91-0.38-1.44-0.38c-0.85,0-1.53,0.27-2.04,0.81c-0.51,0.54-0.77,1.29-0.77,2.24
		c0,0.95,0.26,1.7,0.77,2.24c0.51,0.54,1.19,0.81,2.04,0.81c0.54,0,1.02-0.13,1.44-0.38c0.43-0.25,0.76-0.61,1.01-1.07
		c0.25-0.46,0.37-1,0.37-1.61c0-0.6-0.12-1.14-0.37-1.6C42.14,71.03,41.81,70.67,41.38,70.42z"/>
	<path class="st3" d="M36.34,52.22c0.38-0.7,0.56-1.52,0.56-2.46c0-0.92-0.19-1.74-0.56-2.45c-0.38-0.71-0.89-1.25-1.54-1.64
		c-0.65-0.38-1.38-0.58-2.2-0.58c-1.3,0-2.33,0.41-3.11,1.24c-0.78,0.83-1.16,1.97-1.16,3.42c0,1.45,0.39,2.59,1.16,3.42
		c0.78,0.83,1.81,1.24,3.11,1.24c0.82,0,1.55-0.19,2.2-0.58C35.45,53.46,35.96,52.92,36.34,52.22z"/>
	<path class="st3" d="M63.35,70.18c-0.4-0.2-0.83-0.29-1.3-0.29c-0.75,0-1.38,0.23-1.88,0.69c-0.5,0.46-0.78,1.14-0.82,2.03h5.25
		c0.02-0.6-0.08-1.11-0.31-1.52C64.06,70.68,63.75,70.38,63.35,70.18z"/>
	<path class="st3" d="M17.52,70.18c-0.4-0.2-0.83-0.29-1.3-0.29c-0.75,0-1.38,0.23-1.88,0.69c-0.5,0.46-0.78,1.14-0.82,2.03h5.25
		c0.02-0.6-0.08-1.11-0.31-1.52C18.23,70.68,17.92,70.38,17.52,70.18z"/>
	<path class="st3" d="M3.81,67.57h-1.9V76h1.9c1.42,0,2.51-0.37,3.27-1.11c0.76-0.74,1.14-1.77,1.14-3.11s-0.38-2.37-1.14-3.11
		C6.32,67.94,5.23,67.57,3.81,67.57z"/>
	<path class="st3" d="M6.58,48.66H2.92v5.76h3.69c1.11,0,1.97-0.25,2.57-0.76c0.61-0.5,0.91-1.21,0.91-2.11
		c0-0.91-0.31-1.61-0.92-2.13C8.55,48.92,7.69,48.66,6.58,48.66z"/>
	<path class="st3" d="M68.81,45.68c-0.65-0.38-1.38-0.58-2.2-0.58c-1.3,0-2.33,0.41-3.11,1.24c-0.78,0.83-1.16,1.97-1.16,3.42
		c0,1.45,0.39,2.59,1.16,3.42c0.78,0.83,1.81,1.24,3.11,1.24c0.82,0,1.55-0.19,2.2-0.58s1.16-0.93,1.54-1.63
		c0.38-0.7,0.56-1.52,0.56-2.46c0-0.92-0.19-1.74-0.56-2.45C69.97,46.61,69.46,46.06,68.81,45.68z"/>
	<path class="st3" d="M8.87,45.82c0.54-0.48,0.81-1.14,0.81-2c0-0.84-0.27-1.49-0.81-1.97c-0.54-0.48-1.35-0.72-2.45-0.72H2.92v5.4
		h3.61C7.55,46.53,8.34,46.3,8.87,45.82z"/>
	<path class="st1" d="M12.08,49.07c-0.68-0.82-1.56-1.34-2.65-1.56c0.97-0.24,1.76-0.71,2.35-1.42s0.9-1.63,0.9-2.78
		c0-1.42-0.48-2.53-1.45-3.34c-0.97-0.81-2.35-1.22-4.16-1.22H0v18.08h7.2c1.91,0,3.37-0.44,4.38-1.32
		c1.01-0.88,1.51-2.07,1.51-3.57C13.09,50.85,12.75,49.89,12.08,49.07z M2.92,41.13h3.51c1.09,0,1.91,0.24,2.45,0.72
		c0.54,0.48,0.81,1.14,0.81,1.97c0,0.85-0.27,1.52-0.81,2c-0.54,0.48-1.32,0.72-2.34,0.72H2.92V41.13z M9.18,53.67
		c-0.61,0.5-1.46,0.76-2.57,0.76H2.92v-5.76h3.66c1.11,0,1.97,0.26,2.59,0.77c0.61,0.51,0.92,1.22,0.92,2.13
		C10.09,52.46,9.79,53.16,9.18,53.67z"/>
	<path class="st1" d="M15.83,42.72v14.11h2.92v-7.14c0-1.43,0.39-2.46,1.17-3.09c0.78-0.62,1.8-0.93,3.09-0.93h0.87v-3.18
		c-1.16,0-2.19,0.27-3.07,0.81c-0.89,0.54-1.57,1.27-2.05,2.19v-2.77H15.83z"/>
	<path class="st1" d="M36.9,53.55v3.28h2.92V42.72H36.9V46c-0.38-1.04-1.02-1.88-1.92-2.51c-0.91-0.63-2-0.95-3.28-0.95
		c-1.23,0-2.33,0.29-3.29,0.87c-0.97,0.58-1.72,1.42-2.27,2.51c-0.55,1.09-0.82,2.37-0.82,3.84c0,1.49,0.27,2.77,0.82,3.87
		s1.3,1.93,2.27,2.51c0.96,0.58,2.06,0.87,3.29,0.87c1.28,0,2.37-0.32,3.28-0.95C35.89,55.43,36.53,54.59,36.9,53.55z M34.8,53.85
		c-0.65,0.38-1.38,0.58-2.2,0.58c-1.3,0-2.33-0.41-3.11-1.24c-0.78-0.83-1.16-1.97-1.16-3.42c0-1.45,0.39-2.59,1.16-3.42
		c0.78-0.83,1.81-1.24,3.11-1.24c0.82,0,1.55,0.19,2.2,0.58c0.65,0.38,1.16,0.93,1.54,1.64c0.38,0.71,0.56,1.52,0.56,2.45
		c0,0.94-0.19,1.76-0.56,2.46C35.96,52.92,35.45,53.46,34.8,53.85z"/>
	<path class="st1" d="M51.22,42.49c-1.16,0-2.19,0.29-3.07,0.87c-0.89,0.58-1.52,1.4-1.9,2.46v-3.1h-2.92v14.11h2.92v-7.5
		c0-1.43,0.35-2.52,1.05-3.26c0.7-0.74,1.63-1.11,2.79-1.11c1.13,0,2.01,0.35,2.66,1.04c0.65,0.69,0.97,1.67,0.97,2.93v7.91h2.92
		v-8.22c0-1.96-0.5-3.47-1.49-4.53C54.17,43.02,52.86,42.49,51.22,42.49z"/>
	<path class="st1" d="M70.88,46c-0.36-1.04-0.99-1.88-1.9-2.51c-0.91-0.63-2-0.95-3.28-0.95c-1.23,0-2.33,0.29-3.29,0.87
		c-0.97,0.58-1.72,1.42-2.27,2.51c-0.55,1.09-0.82,2.37-0.82,3.84c0,1.49,0.27,2.77,0.82,3.87s1.3,1.93,2.27,2.51
		c0.96,0.58,2.06,0.87,3.29,0.87c1.28,0,2.37-0.32,3.28-0.95c0.91-0.63,1.54-1.47,1.9-2.51v3.28h2.95V37.88h-2.95V46z M70.35,52.22
		c-0.38,0.7-0.89,1.24-1.54,1.63s-1.38,0.58-2.2,0.58c-1.3,0-2.33-0.41-3.11-1.24c-0.78-0.83-1.16-1.97-1.16-3.42
		c0-1.45,0.39-2.59,1.16-3.42c0.78-0.83,1.81-1.24,3.11-1.24c0.82,0,1.55,0.19,2.2,0.58s1.16,0.93,1.54,1.64
		c0.38,0.71,0.56,1.52,0.56,2.45C70.91,50.7,70.72,51.52,70.35,52.22z"/>
	<path class="st1" d="M7.31,66.61c-0.94-0.49-2.05-0.73-3.35-0.73H0v11.85h3.96c1.3,0,2.41-0.25,3.35-0.74
		c0.93-0.49,1.64-1.18,2.13-2.07c0.49-0.89,0.73-1.93,0.73-3.13c0-1.2-0.24-2.24-0.73-3.12C8.96,67.78,8.25,67.09,7.31,66.61z
		 M7.09,74.89C6.32,75.63,5.23,76,3.81,76h-1.9v-8.43h1.9c1.42,0,2.51,0.37,3.27,1.11c0.76,0.74,1.14,1.77,1.14,3.11
		S7.85,74.15,7.09,74.89z"/>
	<path class="st1" d="M18.59,68.92c-0.68-0.37-1.47-0.56-2.38-0.56c-0.9,0-1.69,0.19-2.38,0.57c-0.69,0.38-1.23,0.93-1.62,1.64
		c-0.39,0.72-0.59,1.56-0.59,2.52c0,0.97,0.19,1.82,0.59,2.54c0.39,0.72,0.93,1.27,1.62,1.65c0.69,0.38,1.48,0.57,2.38,0.57
		c0.77,0,1.47-0.14,2.1-0.43c0.63-0.29,1.14-0.68,1.53-1.18c0.39-0.5,0.65-1.08,0.77-1.73h-2.05c-0.1,0.54-0.37,0.97-0.81,1.29
		c-0.44,0.33-0.98,0.49-1.62,0.49c-0.73,0-1.34-0.23-1.83-0.69c-0.49-0.46-0.75-1.16-0.79-2.12h7.12c0.05-0.24,0.07-0.51,0.07-0.82
		c0-0.81-0.18-1.54-0.55-2.19C19.79,69.81,19.27,69.3,18.59,68.92z M13.51,72.61c0.05-0.89,0.32-1.57,0.82-2.03
		c0.5-0.46,1.13-0.69,1.88-0.69c0.47,0,0.9,0.1,1.3,0.29c0.4,0.2,0.71,0.5,0.94,0.91c0.23,0.41,0.33,0.91,0.31,1.52H13.51z"/>
	<path class="st1" d="M27.93,72.96c-0.43-0.17-0.99-0.33-1.69-0.49c-0.53-0.12-0.93-0.23-1.22-0.34c-0.29-0.1-0.52-0.24-0.71-0.42
		c-0.19-0.18-0.29-0.41-0.29-0.71c0-0.39,0.13-0.7,0.39-0.93c0.26-0.23,0.63-0.34,1.12-0.34c0.58,0,1.05,0.15,1.4,0.46
		c0.35,0.31,0.57,0.71,0.65,1.22h1.81c-0.14-0.93-0.54-1.67-1.2-2.22c-0.65-0.55-1.52-0.83-2.61-0.83c-1.04,0-1.86,0.24-2.44,0.73
		c-0.59,0.49-0.88,1.12-0.88,1.91c0,0.6,0.15,1.08,0.45,1.44c0.3,0.35,0.65,0.61,1.07,0.76c0.42,0.16,0.96,0.31,1.64,0.47
		c0.53,0.11,0.94,0.22,1.24,0.33c0.3,0.11,0.55,0.25,0.75,0.44c0.2,0.19,0.3,0.45,0.3,0.77c0,0.37-0.13,0.67-0.39,0.92
		c-0.26,0.24-0.62,0.36-1.08,0.36c-0.64,0-1.15-0.16-1.54-0.47c-0.39-0.31-0.62-0.72-0.67-1.23h-1.86c0.15,0.96,0.57,1.71,1.28,2.25
		c0.71,0.54,1.64,0.81,2.79,0.81c1,0,1.79-0.24,2.38-0.72c0.59-0.48,0.88-1.11,0.88-1.88c0-0.63-0.15-1.12-0.46-1.49
		C28.73,73.39,28.36,73.13,27.93,72.96z"/>
	<path class="st1" d="M32.37,64.67c-0.37,0-0.67,0.11-0.89,0.32c-0.22,0.21-0.34,0.48-0.34,0.81c0,0.32,0.11,0.59,0.34,0.79
		c0.22,0.2,0.52,0.3,0.89,0.3c0.37,0,0.67-0.1,0.9-0.3c0.23-0.2,0.34-0.46,0.34-0.79c0-0.33-0.11-0.59-0.34-0.81
		C33.04,64.77,32.74,64.67,32.37,64.67z"/>
	<rect x="31.41" y="68.48" class="st1" width="1.91" height="9.25"/>
	<path class="st1" d="M42.76,70.63c-0.25-0.68-0.67-1.23-1.26-1.65c-0.59-0.41-1.31-0.62-2.15-0.62c-0.8,0-1.52,0.19-2.16,0.57
		c-0.63,0.38-1.13,0.93-1.48,1.64c-0.36,0.72-0.54,1.56-0.54,2.52c0,0.97,0.18,1.82,0.54,2.54c0.36,0.72,0.85,1.27,1.48,1.65
		c0.63,0.38,1.35,0.57,2.16,0.57c0.84,0,1.56-0.21,2.15-0.62c0.59-0.41,1.01-0.96,1.26-1.65v2.25c0,0.9-0.25,1.58-0.74,2.05
		c-0.49,0.47-1.12,0.71-1.88,0.71c-0.69,0-1.27-0.15-1.71-0.46c-0.45-0.31-0.75-0.74-0.91-1.28h-1.9c0.2,1.05,0.7,1.89,1.5,2.5
		c0.8,0.61,1.85,0.92,3.15,0.92c0.91,0,1.69-0.19,2.35-0.57c0.66-0.38,1.17-0.9,1.52-1.57c0.35-0.67,0.53-1.43,0.53-2.29v-9.35
		h-1.91V70.63z M42.39,74.71c-0.25,0.46-0.58,0.81-1.01,1.07c-0.42,0.25-0.91,0.38-1.44,0.38c-0.85,0-1.53-0.27-2.04-0.81
		c-0.51-0.54-0.77-1.29-0.77-2.24c0-0.95,0.26-1.7,0.77-2.24c0.51-0.54,1.19-0.81,2.04-0.81c0.54,0,1.02,0.13,1.44,0.38
		c0.43,0.25,0.76,0.61,1.01,1.07c0.25,0.47,0.37,1,0.37,1.6C42.76,73.71,42.64,74.25,42.39,74.71z"/>
	<path class="st1" d="M52.14,68.33c-0.76,0-1.43,0.19-2.02,0.57c-0.58,0.38-1,0.92-1.24,1.61v-2.03h-1.91v9.25h1.91v-4.92
		c0-0.94,0.23-1.65,0.69-2.14c0.46-0.49,1.07-0.73,1.83-0.73c0.74,0,1.32,0.23,1.75,0.68c0.43,0.45,0.64,1.09,0.64,1.92v5.19h1.91
		v-5.39c0-1.29-0.33-2.28-0.97-2.97C54.08,68.67,53.22,68.33,52.14,68.33z"/>
	<path class="st1" d="M64.43,68.92c-0.68-0.37-1.47-0.56-2.38-0.56c-0.9,0-1.69,0.19-2.38,0.57c-0.69,0.38-1.23,0.93-1.62,1.64
		c-0.39,0.72-0.59,1.56-0.59,2.52c0,0.97,0.19,1.82,0.59,2.54c0.39,0.72,0.93,1.27,1.62,1.65c0.69,0.38,1.48,0.57,2.38,0.57
		c0.77,0,1.47-0.14,2.1-0.43c0.63-0.29,1.14-0.68,1.53-1.18c0.39-0.5,0.65-1.08,0.77-1.73H64.4c-0.1,0.54-0.37,0.97-0.81,1.29
		c-0.44,0.33-0.98,0.49-1.62,0.49c-0.73,0-1.34-0.23-1.83-0.69s-0.75-1.16-0.79-2.12h7.12c0.05-0.24,0.07-0.51,0.07-0.82
		c0-0.81-0.18-1.54-0.55-2.19C65.62,69.81,65.1,69.3,64.43,68.92z M59.35,72.61c0.05-0.89,0.32-1.57,0.82-2.03
		c0.5-0.46,1.13-0.69,1.88-0.69c0.47,0,0.9,0.1,1.3,0.29c0.4,0.2,0.71,0.5,0.94,0.91c0.23,0.41,0.33,0.91,0.31,1.52H59.35z"/>
	<path class="st1" d="M70.29,70.29v-1.81h-1.91v9.25h1.91v-4.68c0-0.94,0.25-1.61,0.76-2.02c0.51-0.41,1.18-0.61,2.02-0.61h0.57
		v-2.08c-0.76,0-1.43,0.18-2.02,0.53C71.06,69.21,70.61,69.69,70.29,70.29z"/>
	<path class="st1" d="M53,16.63c-0.74-0.43-1.59-0.65-2.53-0.65c-1.48,0-2.68,0.47-3.57,1.41c-0.89,0.94-1.34,2.24-1.34,3.88
		c0,1.64,0.45,2.94,1.34,3.88c0.89,0.93,2.09,1.41,3.57,1.41c0.93,0,1.79-0.22,2.53-0.65c0.74-0.43,1.34-1.05,1.76-1.85
		c0.43-0.8,0.64-1.74,0.64-2.79c0-1.05-0.22-1.99-0.64-2.79C54.34,17.69,53.75,17.07,53,16.63z"/>
	<path class="st1" d="M71.65,28.46v-0.25v-7.95c0-1.43-0.36-2.54-1.08-3.3c-0.71-0.75-1.7-1.13-2.94-1.13
		c-1.33,0-2.35,0.41-3.13,1.25c-0.77,0.84-1.17,2.1-1.17,3.76v7.37v0.25h-0.25h-1.8h-0.25v-0.25V14.33v-0.25h0.25h1.8h0.25v0.25
		v2.16c0.38-0.69,0.9-1.25,1.54-1.68c0.97-0.65,2.09-0.98,3.34-0.98c1.67,0,3.05,0.54,4.11,1.61c0.66,0.67,1.08,1.56,1.33,2.61V0H0
		v22.93h1.78h0.25v0.25c0,1.03,0.23,1.85,0.69,2.45c0.44,0.59,1.14,0.88,2.11,0.88c0.92,0,1.57-0.25,1.95-0.73
		c0.39-0.5,0.59-1.14,0.59-1.89v-13.6v-0.25h0.25h1.81h0.25v0.25v13.6c0,1.42-0.43,2.57-1.28,3.44c-0.85,0.87-2.02,1.31-3.49,1.31
		c-1.61,0-2.88-0.49-3.79-1.45C0.58,26.62,0.22,25.9,0,25.07v7.03h32.55l1.69-4.05l-5.8-13.63l-0.15-0.35h0.38h1.98h0.17l0.06,0.15
		l4.59,10.99l4.22-10.98l0.06-0.16h0.17h1.98h0.37l-0.14,0.34L35.08,32.1h38.57v-3.64H71.9H71.65z M26.66,14.33v13.88v0.25h-0.25
		h-1.75H24.4v-0.25v-2.58c-0.41,0.74-0.96,1.36-1.65,1.87c-1.03,0.76-2.29,1.14-3.74,1.14c-1.29,0-2.47-0.3-3.49-0.9
		c-1.03-0.6-1.84-1.46-2.41-2.58c-0.57-1.11-0.85-2.41-0.85-3.89c0-1.49,0.29-2.81,0.85-3.91c0.57-1.11,1.38-1.98,2.4-2.57
		c1.02-0.59,2.2-0.89,3.5-0.89c1.45,0,2.71,0.38,3.74,1.14c0.69,0.51,1.24,1.13,1.65,1.87v-2.58v-0.25h0.25h1.75h0.25V14.33z
		 M57.66,14.33v13.88v0.25h-0.25h-1.75h-0.25v-0.25v-2.58c-0.41,0.74-0.96,1.36-1.65,1.87c-1.03,0.76-2.29,1.14-3.74,1.14
		c-1.29,0-2.47-0.3-3.49-0.9c-1.03-0.6-1.84-1.46-2.41-2.58c-0.57-1.11-0.85-2.41-0.85-3.89c0-1.49,0.29-2.81,0.85-3.91
		c0.57-1.11,1.38-1.98,2.4-2.57c1.02-0.59,2.2-0.89,3.5-0.89c1.45,0,2.71,0.38,3.74,1.14c0.69,0.51,1.24,1.13,1.65,1.87v-2.58v-0.25
		h0.25h1.75h0.25V14.33z"/>
	<path class="st1" d="M22,16.63c-0.74-0.43-1.59-0.65-2.53-0.65c-1.48,0-2.68,0.47-3.57,1.41c-0.89,0.94-1.34,2.24-1.34,3.88
		c0,1.64,0.45,2.94,1.34,3.88c0.89,0.93,2.09,1.41,3.57,1.41c0.93,0,1.79-0.22,2.53-0.65c0.74-0.43,1.34-1.05,1.76-1.85
		c0.43-0.8,0.64-1.74,0.64-2.79c0-1.05-0.22-1.99-0.64-2.79C23.33,17.69,22.74,17.07,22,16.63z"/>
</g>
</svg>
