<?xml version="1.0" encoding="utf-8"?>
<!-- Generator: Adobe Illustrator 27.0.0, SVG Export Plug-In . SVG Version: 6.00 Build 0)  -->
<svg version="1.1" id="Layer_1" xmlns="http://www.w3.org/2000/svg" xmlns:xlink="http://www.w3.org/1999/xlink" x="0px" y="0px"
	 viewBox="0 0 859 285.9" style="enable-background:new 0 0 859 285.9;" xml:space="preserve">
<style type="text/css">
	.st0{fill:#FFFFFF;}
	.st1{fill:#2CF285;}
</style>
<g>
	<path class="st0" d="M178.1,174.5c9.2,11.4,13.8,24.7,13.8,40c0,21.3-7.1,38.1-21.3,50.4c-14.2,12.3-34.9,18.5-61.9,18.5H0V30.1
		h106.5c25.6,0,45.2,5.6,59,16.9c13.7,11.2,20.6,27,20.6,47.3c0,15.8-4.1,28.7-12.4,38.7c-8.2,10-19.1,16.6-32.5,19.7
		C156.6,155.9,168.9,163.1,178.1,174.5z M50.6,136.3h45.6c12.7,0,22.3-2.8,28.9-8.4c6.6-5.6,9.9-13.7,9.9-24.2
		c0-10.5-3.2-18.7-9.7-24.4c-6.5-5.7-16.4-8.6-29.8-8.6H50.6V136.3z M129.5,233.3c7.2-5.9,10.8-14.4,10.8-25.6
		c0-11.2-3.6-19.9-10.9-26c-7.3-6.1-17.6-9.1-31-9.1H50.6v69.6h48.1C112,242.1,122.3,239.2,129.5,233.3z"/>
	<path class="st0" d="M417.5,84.6v198.7h-50.6v-40.2c-5.3,13.4-13.9,23.9-26,31.4c-12.1,7.5-26,11.3-41.8,11.3
		c-23,0-41.2-7.5-54.9-22.6c-13.6-15.1-20.4-36.1-20.4-63.1V84.6H274v109.8c0,15.8,4.1,28,12.2,36.8c8.1,8.7,19.1,13.1,33,13.1
		c14.6,0,26.2-4.7,34.8-14c8.6-9.3,12.9-22.7,12.9-40.2V84.6H417.5z"/>
	<path class="st0" d="M627.3,94.3c13.4,8.1,23.9,19.9,31.4,35.3c7.5,15.4,11.3,33.5,11.3,54.3c0,20.8-3.8,38.9-11.3,54.3
		c-7.5,15.4-18,27.2-31.4,35.3c-13.4,8.1-28.5,12.2-45.2,12.2c-16.7,0-31-4-42.9-12c-11.8-8-20.3-18.7-25.3-32.1v41.6h-50.6V17.9
		H514v108c5-13.4,13.5-24,25.3-31.9c11.8-7.9,26.1-11.8,42.9-11.8C598.8,82.1,613.9,86.2,627.3,94.3z M528.5,141.9
		c-9.9,10.4-14.9,24.5-14.9,42.1c0,17.5,5,31.4,14.9,41.8c9.9,10.4,22.5,15.6,37.8,15.6c15.8,0,28.5-5.1,38-15.2
		c9.6-10.2,14.3-24.2,14.3-42.1s-4.8-32-14.3-42.3c-9.6-10.3-22.2-15.4-38-15.4C551,126.3,538.4,131.5,528.5,141.9z"/>
	<path class="st0" d="M756.4,17.9v265.4h-50.6V17.9H756.4z"/>
	<path class="st1" d="M805.2,7.7c5.7-5.1,13.3-7.7,22.6-7.7s16.9,2.6,22.6,7.7c5.7,5.1,8.6,11.8,8.6,19.9c0,7.9-2.9,14.4-8.6,19.5
		c-5.7,5.1-13.3,7.7-22.6,7.7s-16.9-2.6-22.6-7.7c-5.7-5.1-8.6-11.7-8.6-19.5C796.6,19.5,799.5,12.9,805.2,7.7z"/>
	<rect x="802.3" y="84.6" class="st0" width="50.6" height="198.7"/>
</g>
</svg>
