<?xml version="1.0" encoding="utf-8"?>
<!-- Generator: Adobe Illustrator 24.3.0, SVG Export Plug-In . SVG Version: 6.00 Build 0)  -->
<svg version="1.1" id="Layer_1" xmlns="http://www.w3.org/2000/svg" xmlns:xlink="http://www.w3.org/1999/xlink" x="0px" y="0px"
	 viewBox="0 0 182 182" style="enable-background:new 0 0 182 182;" xml:space="preserve">
<style type="text/css">
	.st0{fill:#151516;}
	.st1{fill:#FFFFFF;}
	.st2{fill:#4646E8;}
	.st3{fill:none;}
</style>
<circle class="st1" cx="91" cy="91" r="91"/>
<g>
	<path class="st0" d="M38.72,70.41v25.95c0,2.59-0.77,4.66-2.31,6.23c-1.53,1.57-3.64,2.35-6.33,2.35c-2.94,0-5.24-0.87-6.89-2.62
		c-1.65-1.75-2.47-4.19-2.47-7.32h3.4c0,2.07,0.47,3.73,1.41,4.97c0.94,1.25,2.41,1.87,4.41,1.87c1.91,0,3.28-0.52,4.1-1.58
		c0.82-1.05,1.23-2.35,1.23-3.9V70.41H38.72z"/>
	<path class="st0" d="M63.87,79.87c1.89,1.39,3.19,3.23,3.91,5.53v-7.27h3.34v26.48h-3.34v-7.27c-0.71,2.3-2.01,4.14-3.91,5.53
		c-1.89,1.39-4.18,2.08-6.86,2.08c-2.39,0-4.53-0.55-6.42-1.65c-1.89-1.1-3.36-2.67-4.42-4.73c-1.05-2.05-1.57-4.45-1.57-7.2
		c0-2.78,0.52-5.2,1.57-7.25c1.05-2.05,2.51-3.62,4.39-4.7s4.03-1.62,6.45-1.62C59.69,77.78,61.98,78.48,63.87,79.87z M50.73,83.62
		c-1.8,1.89-2.69,4.47-2.69,7.74s0.9,5.84,2.69,7.73c1.79,1.89,4.17,2.84,7.15,2.84c1.88,0,3.57-0.44,5.07-1.31
		c1.5-0.87,2.68-2.11,3.54-3.71c0.86-1.6,1.29-3.45,1.29-5.55s-0.43-3.95-1.29-5.55c-0.86-1.6-2.04-2.84-3.54-3.71
		c-1.5-0.87-3.19-1.31-5.07-1.31C54.9,80.79,52.52,81.73,50.73,83.62z"/>
	<path class="st0" d="M79.21,78.12l9.22,22.07l8.48-22.07h3.79l-15.57,38.99h-3.88l5.34-12.8L75.43,78.12H79.21z"/>
	<path class="st0" d="M123.03,79.87c1.89,1.39,3.19,3.23,3.91,5.53v-7.27h3.34v26.48h-3.34v-7.27c-0.71,2.3-2.01,4.14-3.91,5.53
		c-1.89,1.39-4.18,2.08-6.86,2.08c-2.39,0-4.53-0.55-6.42-1.65c-1.89-1.1-3.36-2.67-4.42-4.73c-1.05-2.05-1.57-4.45-1.57-7.2
		c0-2.78,0.52-5.2,1.57-7.25c1.05-2.05,2.51-3.62,4.39-4.7c1.88-1.08,4.03-1.62,6.45-1.62C118.85,77.78,121.14,78.48,123.03,79.87z
		 M109.89,83.62c-1.8,1.89-2.69,4.47-2.69,7.74s0.9,5.84,2.69,7.73c1.79,1.89,4.17,2.84,7.15,2.84c1.88,0,3.57-0.44,5.07-1.31
		c1.5-0.87,2.68-2.11,3.54-3.71c0.86-1.6,1.29-3.45,1.29-5.55s-0.43-3.95-1.29-5.55c-0.86-1.6-2.04-2.84-3.54-3.71
		c-1.5-0.87-3.19-1.31-5.07-1.31C114.06,80.79,111.68,81.73,109.89,83.62z"/>
	<path class="st0" d="M158.38,80.57c1.92,1.96,2.89,4.83,2.89,8.61v15.42h-3.35V89.42c0-2.88-0.73-5.08-2.18-6.62
		s-3.44-2.3-5.96-2.3c-2.65,0-4.76,0.85-6.33,2.55c-1.57,1.7-2.35,4.19-2.35,7.49v14.06h-3.44V78.12h3.44v6.5
		c0.68-2.26,1.91-3.99,3.69-5.19c1.78-1.19,3.81-1.79,6.11-1.79C153.96,77.64,156.46,78.61,158.38,80.57z"/>
</g>
</svg>
